<svg xmlns="http://www.w3.org/2000/svg" viewBox="0 0 1024 1024">
  <defs>
    <linearGradient id="g" x1="0" x2="1" y1="0" y2="1">
      <stop offset="0%" stop-color="#6366f1"/>
      <stop offset="100%" stop-color="#a855f7"/>
    </linearGradient>
  </defs>
  <rect width="1024" height="1024" rx="220" fill="url(#g)"/>
  <!-- Collage tiles -->
  <g fill="#ffffff" opacity="0.96">
    <rect x="180" y="220" width="320" height="240" rx="28"/>
    <rect x="524" y="220" width="320" height="180" rx="28"/>
    <rect x="180" y="484" width="300" height="320" rx="28"/>
    <rect x="500" y="436" width="344" height="368" rx="28"/>
  </g>
  
  <!-- Top-left tile: Heart emoji -->
  <g transform="translate(180,220)">
    <rect x="16" y="16" width="288" height="208" rx="20" fill="#ef4444" opacity="0.15"/>
    <text x="160" y="145" font-size="100" text-anchor="middle" fill="#ef4444">❤️</text>
  </g>
  
  <!-- Top-right tile: Stars -->
  <g transform="translate(524,220)">
    <rect x="16" y="16" width="288" height="148" rx="20" fill="#fbbf24" opacity="0.15"/>
    <text x="60" y="75" font-size="48" fill="#fbbf24">⭐</text>
    <text x="160" y="105" font-size="60" fill="#fbbf24">✨</text>
    <text x="240" y="70" font-size="40" fill="#fbbf24">🌟</text>
  </g>
  
  <!-- Bottom-left tile: Text "Pix" -->
  <g transform="translate(180,484)">
    <rect x="16" y="16" width="268" height="288" rx="20" fill="#3b82f6" opacity="0.15"/>
    <text x="150" y="200" font-size="90" font-weight="bold" text-anchor="middle" fill="#3b82f6" font-family="Arial, sans-serif">Pix</text>
  </g>
  
  <!-- Bottom-right tile: Photo pictogram (landscape) -->
  <g transform="translate(500,436)">
    <rect x="24" y="24" width="296" height="320" rx="20" fill="#111827" opacity="0.12"/>
    <!-- Sun -->
    <circle cx="260" cy="70" r="20" fill="#fde68a"/>
    <!-- Mountains -->
    <path d="M40 310 L140 190 L200 260 L260 210 L320 270 L320 310 Z" fill="#ffffff" opacity="0.95"/>
  </g>
</svg>
