<svg width="512" height="512" viewBox="0 0 512 512" xmlns="http://www.w3.org/2000/svg">
  <!-- Heart explosion - many small hearts bursting outward -->
  
  <!-- Center cluster -->
  <g transform="translate(256, 256)">
    <path d="M 0 25 C 0 25 -25 -4 -33 -14 C -40 -22 -40 -33 -33 -39 C -26 -45 -18 -45 -12 -39 C -8 -35 -3 -29 0 -23 C 3 -29 8 -35 12 -39 C 18 -45 26 -45 33 -39 C 40 -33 40 -22 33 -14 C 25 -4 0 25 0 25 Z" 
          fill="#FF1744" opacity="0.95"/>
  </g>
  
  <!-- Exploding hearts - top -->
  <g transform="translate(256, 120)">
    <path d="M 0 12 C 0 12 -12 -2 -16 -7 C -19 -11 -19 -16 -16 -19 C -13 -22 -9 -22 -6 -19 C -4 -17 -2 -14 0 -11 C 2 -14 4 -17 6 -19 C 9 -22 13 -22 16 -19 C 19 -16 19 -11 16 -7 C 12 -2 0 12 0 12 Z" 
          fill="#F50057" opacity="0.9"/>
  </g>
  
  <g transform="translate(220, 140)">
    <path d="M 0 10 C 0 10 -10 -2 -13 -6 C -16 -9 -16 -13 -13 -16 C -10 -19 -7 -19 -5 -16 C -3 -14 -1 -12 0 -9 C 1 -12 3 -14 5 -16 C 7 -19 10 -19 13 -16 C 16 -13 16 -9 13 -6 C 10 -2 0 10 0 10 Z" 
          fill="#FF4081" opacity="0.85"/>
  </g>
  
  <g transform="translate(292, 140)">
    <path d="M 0 10 C 0 10 -10 -2 -13 -6 C -16 -9 -16 -13 -13 -16 C -10 -19 -7 -19 -5 -16 C -3 -14 -1 -12 0 -9 C 1 -12 3 -14 5 -16 C 7 -19 10 -19 13 -16 C 16 -13 16 -9 13 -6 C 10 -2 0 10 0 10 Z" 
          fill="#E91E63" opacity="0.85"/>
  </g>
  
  <!-- Right -->
  <g transform="translate(360, 256)">
    <path d="M 0 12 C 0 12 -12 -2 -16 -7 C -19 -11 -19 -16 -16 -19 C -13 -22 -9 -22 -6 -19 C -4 -17 -2 -14 0 -11 C 2 -14 4 -17 6 -19 C 9 -22 13 -22 16 -19 C 19 -16 19 -11 16 -7 C 12 -2 0 12 0 12 Z" 
          fill="#FF1744" opacity="0.9"/>
  </g>
  
  <g transform="translate(340, 220)">
    <path d="M 0 8 C 0 8 -8 -1 -11 -5 C -13 -7 -13 -11 -11 -13 C -9 -15 -6 -15 -4 -13 C -2 -11 -1 -9 0 -7 C 1 -9 2 -11 4 -13 C 6 -15 9 -15 11 -13 C 13 -11 13 -7 11 -5 C 8 -1 0 8 0 8 Z" 
          fill="#F50057" opacity="0.8"/>
  </g>
  
  <g transform="translate(340, 292)">
    <path d="M 0 8 C 0 8 -8 -1 -11 -5 C -13 -7 -13 -11 -11 -13 C -9 -15 -6 -15 -4 -13 C -2 -11 -1 -9 0 -7 C 1 -9 2 -11 4 -13 C 6 -15 9 -15 11 -13 C 13 -11 13 -7 11 -5 C 8 -1 0 8 0 8 Z" 
          fill="#FF4081" opacity="0.8"/>
  </g>
  
  <!-- Bottom -->
  <g transform="translate(256, 392)">
    <path d="M 0 12 C 0 12 -12 -2 -16 -7 C -19 -11 -19 -16 -16 -19 C -13 -22 -9 -22 -6 -19 C -4 -17 -2 -14 0 -11 C 2 -14 4 -17 6 -19 C 9 -22 13 -22 16 -19 C 19 -16 19 -11 16 -7 C 12 -2 0 12 0 12 Z" 
          fill="#E91E63" opacity="0.9"/>
  </g>
  
  <g transform="translate(220, 372)">
    <path d="M 0 10 C 0 10 -10 -2 -13 -6 C -16 -9 -16 -13 -13 -16 C -10 -19 -7 -19 -5 -16 C -3 -14 -1 -12 0 -9 C 1 -12 3 -14 5 -16 C 7 -19 10 -19 13 -16 C 16 -13 16 -9 13 -6 C 10 -2 0 10 0 10 Z" 
          fill="#FF1744" opacity="0.85"/>
  </g>
  
  <g transform="translate(292, 372)">
    <path d="M 0 10 C 0 10 -10 -2 -13 -6 C -16 -9 -16 -13 -13 -16 C -10 -19 -7 -19 -5 -16 C -3 -14 -1 -12 0 -9 C 1 -12 3 -14 5 -16 C 7 -19 10 -19 13 -16 C 16 -13 16 -9 13 -6 C 10 -2 0 10 0 10 Z" 
          fill="#F50057" opacity="0.85"/>
  </g>
  
  <!-- Left -->
  <g transform="translate(152, 256)">
    <path d="M 0 12 C 0 12 -12 -2 -16 -7 C -19 -11 -19 -16 -16 -19 C -13 -22 -9 -22 -6 -19 C -4 -17 -2 -14 0 -11 C 2 -14 4 -17 6 -19 C 9 -22 13 -22 16 -19 C 19 -16 19 -11 16 -7 C 12 -2 0 12 0 12 Z" 
          fill="#FF4081" opacity="0.9"/>
  </g>
  
  <g transform="translate(172, 220)">
    <path d="M 0 8 C 0 8 -8 -1 -11 -5 C -13 -7 -13 -11 -11 -13 C -9 -15 -6 -15 -4 -13 C -2 -11 -1 -9 0 -7 C 1 -9 2 -11 4 -13 C 6 -15 9 -15 11 -13 C 13 -11 13 -7 11 -5 C 8 -1 0 8 0 8 Z" 
          fill="#E91E63" opacity="0.8"/>
  </g>
  
  <g transform="translate(172, 292)">
    <path d="M 0 8 C 0 8 -8 -1 -11 -5 C -13 -7 -13 -11 -11 -13 C -9 -15 -6 -15 -4 -13 C -2 -11 -1 -9 0 -7 C 1 -9 2 -11 4 -13 C 6 -15 9 -15 11 -13 C 13 -11 13 -7 11 -5 C 8 -1 0 8 0 8 Z" 
          fill="#FF1744" opacity="0.8"/>
  </g>
  
  <!-- Tiny hearts scattered -->
  <circle cx="200" cy="180" r="3" fill="#F50057" opacity="0.7"/>
  <circle cx="312" cy="180" r="3" fill="#FF4081" opacity="0.7"/>
  <circle cx="200" cy="332" r="3" fill="#E91E63" opacity="0.7"/>
  <circle cx="312" cy="332" r="3" fill="#FF1744" opacity="0.7"/>
  <circle cx="380" cy="256" r="3" fill="#F50057" opacity="0.7"/>
  <circle cx="132" cy="256" r="3" fill="#FF4081" opacity="0.7"/>
</svg>
