<svg width="512" height="512" viewBox="0 0 512 512" xmlns="http://www.w3.org/2000/svg">
  <!-- Hearts in rotation/spiral pattern -->
  
  <!-- Center large heart -->
  <g transform="translate(256, 256)">
    <path d="M 0 60 C 0 60 -60 -10 -80 -35 C -95 -55 -95 -80 -80 -93 C -65 -106 -45 -106 -30 -93 C -20 -83 -8 -70 0 -55 C 8 -70 20 -83 30 -93 C 45 -106 65 -106 80 -93 C 95 -80 95 -55 80 -35 C 60 -10 0 60 0 60 Z" 
          fill="#FF1744" opacity="0.95"/>
  </g>
  
  <!-- Rotating hearts around center -->
  <g transform="translate(256, 140) rotate(0)">
    <path d="M 0 30 C 0 30 -30 -5 -40 -17 C -48 -27 -48 -40 -40 -47 C -32 -54 -22 -54 -15 -47 C -10 -42 -4 -35 0 -28 C 4 -35 10 -42 15 -47 C 22 -54 32 -54 40 -47 C 48 -40 48 -27 40 -17 C 30 -5 0 30 0 30 Z" 
          fill="#F50057" opacity="0.9"/>
  </g>
  
  <g transform="translate(372, 256) rotate(90)">
    <path d="M 0 30 C 0 30 -30 -5 -40 -17 C -48 -27 -48 -40 -40 -47 C -32 -54 -22 -54 -15 -47 C -10 -42 -4 -35 0 -28 C 4 -35 10 -42 15 -47 C 22 -54 32 -54 40 -47 C 48 -40 48 -27 40 -17 C 30 -5 0 30 0 30 Z" 
          fill="#FF4081" opacity="0.9"/>
  </g>
  
  <g transform="translate(256, 372) rotate(180)">
    <path d="M 0 30 C 0 30 -30 -5 -40 -17 C -48 -27 -48 -40 -40 -47 C -32 -54 -22 -54 -15 -47 C -10 -42 -4 -35 0 -28 C 4 -35 10 -42 15 -47 C 22 -54 32 -54 40 -47 C 48 -40 48 -27 40 -17 C 30 -5 0 30 0 30 Z" 
          fill="#E91E63" opacity="0.9"/>
  </g>
  
  <g transform="translate(140, 256) rotate(270)">
    <path d="M 0 30 C 0 30 -30 -5 -40 -17 C -48 -27 -48 -40 -40 -47 C -32 -54 -22 -54 -15 -47 C -10 -42 -4 -35 0 -28 C 4 -35 10 -42 15 -47 C 22 -54 32 -54 40 -47 C 48 -40 48 -27 40 -17 C 30 -5 0 30 0 30 Z" 
          fill="#FF1744" opacity="0.9"/>
  </g>
  
  <!-- Small hearts in between -->
  <g transform="translate(310, 180)">
    <path d="M 0 18 C 0 18 -18 -3 -24 -10 C -29 -16 -29 -24 -24 -28 C -19 -32 -13 -32 -9 -28 C -6 -25 -2 -21 0 -17 C 2 -21 6 -25 9 -28 C 13 -32 19 -32 24 -28 C 29 -24 29 -16 24 -10 C 18 -3 0 18 0 18 Z" 
          fill="#FF4081" opacity="0.85"/>
  </g>
  
  <g transform="translate(330, 330)">
    <path d="M 0 18 C 0 18 -18 -3 -24 -10 C -29 -16 -29 -24 -24 -28 C -19 -32 -13 -32 -9 -28 C -6 -25 -2 -21 0 -17 C 2 -21 6 -25 9 -28 C 13 -32 19 -32 24 -28 C 29 -24 29 -16 24 -10 C 18 -3 0 18 0 18 Z" 
          fill="#F50057" opacity="0.85"/>
  </g>
  
  <g transform="translate(182, 330)">
    <path d="M 0 18 C 0 18 -18 -3 -24 -10 C -29 -16 -29 -24 -24 -28 C -19 -32 -13 -32 -9 -28 C -6 -25 -2 -21 0 -17 C 2 -21 6 -25 9 -28 C 13 -32 19 -32 24 -28 C 29 -24 29 -16 24 -10 C 18 -3 0 18 0 18 Z" 
          fill="#E91E63" opacity="0.85"/>
  </g>
  
  <g transform="translate(182, 180)">
    <path d="M 0 18 C 0 18 -18 -3 -24 -10 C -29 -16 -29 -24 -24 -28 C -19 -32 -13 -32 -9 -28 C -6 -25 -2 -21 0 -17 C 2 -21 6 -25 9 -28 C 13 -32 19 -32 24 -28 C 29 -24 29 -16 24 -10 C 18 -3 0 18 0 18 Z" 
          fill="#FF1744" opacity="0.85"/>
  </g>
</svg>
