<svg width="512" height="512" viewBox="0 0 512 512" xmlns="http://www.w3.org/2000/svg">
  <!-- Group of 4 hearts in romantic arrangement -->
  
  <!-- Large heart bottom center -->
  <path d="M 256 400 C 256 400 180 340 150 290 C 130 260 130 220 150 200 C 170 180 200 180 220 200 C 230 210 246 225 256 240 C 266 225 282 210 292 200 C 312 180 342 180 362 200 C 382 220 382 260 362 290 C 332 340 256 400 256 400 Z" 
        fill="#FF1744" opacity="0.9"/>
  
  <!-- Medium heart top left -->
  <path d="M 160 140 C 160 140 110 100 90 70 C 75 50 75 25 90 12 C 105 0 125 0 140 12 C 147 20 157 30 160 38 C 163 30 173 20 180 12 C 195 0 215 0 230 12 C 245 25 245 50 230 70 C 210 100 160 140 160 140 Z" 
        fill="#F50057" opacity="0.85"/>
  
  <!-- Small heart top right -->
  <path d="M 400 120 C 400 120 370 95 358 75 C 348 60 348 42 358 32 C 368 22 382 22 392 32 C 397 38 404 45 400 50 C 396 45 403 38 408 32 C 418 22 432 22 442 32 C 452 42 452 60 442 75 C 430 95 400 120 400 120 Z" 
        fill="#FF4081" opacity="0.8"/>
  
  <!-- Tiny heart center right -->
  <path d="M 350 260 C 350 260 330 245 322 232 C 316 223 316 211 322 205 C 328 199 338 199 344 205 C 347 209 351 213 350 216 C 349 213 352 209 356 205 C 362 199 372 199 378 205 C 384 211 384 223 378 232 C 370 245 350 260 350 260 Z" 
        fill="#E91E63" opacity="0.75"/>
</svg>
