<svg width="512" height="512" viewBox="0 0 512 512" xmlns="http://www.w3.org/2000/svg">
  <!-- Sparkles and glitter effect -->
  
  <!-- Central large sparkle -->
  <g transform="translate(256, 256)">
    <path d="M 0 -60 L 8 -8 L 60 0 L 8 8 L 0 60 L -8 8 L -60 0 L -8 -8 Z" 
          fill="#FFD700" opacity="0.95"/>
    <path d="M 0 -40 L 5 -5 L 40 0 L 5 5 L 0 40 L -5 5 L -40 0 L -5 -5 Z" 
          fill="#FFEB3B"/>
  </g>
  
  <!-- Top right sparkle -->
  <g transform="translate(380, 140)">
    <path d="M 0 -35 L 5 -5 L 35 0 L 5 5 L 0 35 L -5 5 L -35 0 L -5 -5 Z" 
          fill="#FFE082" opacity="0.9"/>
  </g>
  
  <!-- Bottom left sparkle -->
  <g transform="translate(150, 360)">
    <path d="M 0 -40 L 6 -6 L 40 0 L 6 6 L 0 40 L -6 6 L -40 0 L -6 -6 Z" 
          fill="#FFF59D" opacity="0.85"/>
  </g>
  
  <!-- Small sparkles scattered -->
  <g transform="translate(120, 180)">
    <path d="M 0 -20 L 3 -3 L 20 0 L 3 3 L 0 20 L -3 3 L -20 0 L -3 -3 Z" 
          fill="#FFFDE7" opacity="0.8"/>
  </g>
  
  <g transform="translate(400, 300)">
    <path d="M 0 -25 L 4 -4 L 25 0 L 4 4 L 0 25 L -4 4 L -25 0 L -4 -4 Z" 
          fill="#FFE082" opacity="0.85"/>
  </g>
  
  <g transform="translate(320, 100)">
    <path d="M 0 -15 L 2 -2 L 15 0 L 2 2 L 0 15 L -2 2 L -15 0 L -2 -2 Z" 
          fill="#FFF9C4" opacity="0.75"/>
  </g>
  
  <g transform="translate(180, 420)">
    <path d="M 0 -18 L 3 -3 L 18 0 L 3 3 L 0 18 L -3 3 L -18 0 L -3 -3 Z" 
          fill="#FFECB3" opacity="0.8"/>
  </g>
  
  <g transform="translate(440, 200)">
    <path d="M 0 -12 L 2 -2 L 12 0 L 2 2 L 0 12 L -2 2 L -12 0 L -2 -2 Z" 
          fill="#FFF59D" opacity="0.7"/>
  </g>
</svg>
