<svg width="512" height="512" viewBox="0 0 512 512" xmlns="http://www.w3.org/2000/svg">
  <!-- Scintillement - Many small scattered sparkles with 3D effect -->
  
  <!-- Large sparkles -->
  <g transform="translate(256, 180)">
    <path d="M 0 -35 L 6 -6 L 35 0 L 6 6 L 0 35 L -6 6 L -35 0 L -6 -6 Z" fill="#FFD700"/>
    <path d="M 0 -25 L 4 -4 L 25 0 L 4 4 L 0 25 L -4 4 L -25 0 L -4 -4 Z" fill="#FFEB3B"/>
  </g>
  
  <g transform="translate(180, 300)">
    <path d="M 0 -30 L 5 -5 L 30 0 L 5 5 L 0 30 L -5 5 L -30 0 L -5 -5 Z" fill="#FFEB3B"/>
    <ellipse cx="0" cy="0" rx="18" ry="18" fill="#FFF9C4"/>
  </g>
  
  <g transform="translate(340, 280)">
    <path d="M 0 -28 L 5 -5 L 28 0 L 5 5 L 0 28 L -5 5 L -28 0 L -5 -5 Z" fill="#FFD700"/>
    <path d="M 0 -18 L 3 -3 L 18 0 L 3 3 L 0 18 L -3 3 L -18 0 L -3 -3 Z" fill="#FFF9C4"/>
  </g>
  
  <!-- Medium sparkles -->
  <g transform="translate(150, 150)">
    <path d="M 0 -20 L 3 -3 L 20 0 L 3 3 L 0 20 L -3 3 L -20 0 L -3 -3 Z" fill="#FFEB3B" opacity="0.9"/>
  </g>
  
  <g transform="translate(380, 180)">
    <path d="M 0 -18 L 3 -3 L 18 0 L 3 3 L 0 18 L -3 3 L -18 0 L -3 -3 Z" fill="#FFD700" opacity="0.9"/>
  </g>
  
  <g transform="translate(200, 380)">
    <path d="M 0 -22 L 4 -4 L 22 0 L 4 4 L 0 22 L -4 4 L -22 0 L -4 -4 Z" fill="#FFF9C4" opacity="0.9"/>
  </g>
  
  <g transform="translate(350, 360)">
    <path d="M 0 -20 L 3 -3 L 20 0 L 3 3 L 0 20 L -3 3 L -20 0 L -3 -3 Z" fill="#FFEB3B" opacity="0.9"/>
  </g>
  
  <!-- Small sparkles -->
  <g transform="translate(120, 240)">
    <path d="M 0 -12 L 2 -2 L 12 0 L 2 2 L 0 12 L -2 2 L -12 0 L -2 -2 Z" fill="#FFD700" opacity="0.8"/>
  </g>
  
  <g transform="translate(390, 240)">
    <path d="M 0 -12 L 2 -2 L 12 0 L 2 2 L 0 12 L -2 2 L -12 0 L -2 -2 Z" fill="#FFF9C4" opacity="0.8"/>
  </g>
  
  <g transform="translate(280, 120)">
    <path d="M 0 -10 L 2 -2 L 10 0 L 2 2 L 0 10 L -2 2 L -10 0 L -2 -2 Z" fill="#FFEB3B" opacity="0.7"/>
  </g>
  
  <g transform="translate(300, 400)">
    <path d="M 0 -10 L 2 -2 L 10 0 L 2 2 L 0 10 L -2 2 L -10 0 L -2 -2 Z" fill="#FFD700" opacity="0.7"/>
  </g>
  
  <g transform="translate(420, 320)">
    <path d="M 0 -8 L 1 -1 L 8 0 L 1 1 L 0 8 L -1 1 L -8 0 L -1 -1 Z" fill="#FFF9C4" opacity="0.6"/>
  </g>
  
  <g transform="translate(100, 340)">
    <path d="M 0 -8 L 1 -1 L 8 0 L 1 1 L 0 8 L -1 1 L -8 0 L -1 -1 Z" fill="#FFEB3B" opacity="0.6"/>
  </g>
</svg>
